<svg xmlns="http://www.w3.org/2000/svg" width="128" height="128" viewBox="0 0 128 128" fill="none">
  <defs>
    <linearGradient id="grad" x1="0" y1="0" x2="128" y2="128" gradientUnits="userSpaceOnUse">
      <stop offset="0%" stop-color="#4f46e5"/>
      <stop offset="100%" stop-color="#3730a3"/>
    </linearGradient>
    <clipPath id="gc"><path d="M64 6.399999999999999 A57.6 57.6 0 1 0 113.883 92.800 L64 64 Z"/></clipPath>
    <clipPath id="cc"><path d="M64 6.399999999999999 A57.6 57.6 0 0 1 113.883 92.800 L64 64 Z"/></clipPath>
  </defs>
  
  <circle cx="64" cy="64" r="57.6" fill="url(#grad)"/>
  <g clip-path="url(#gc)" fill="white" fill-opacity="0.88">
    <path d="M60.371,8.128L62.790,8.128L65.555,9.222L67.917,10.950L65.958,13.600L57.030,14.118L55.245,11.354L57.894,9.222Z"/>
    <path d="M43.379,10.202L48.736,8.934L45.338,11.814L48.678,21.894L43.610,23.277L39.059,23.968L30.074,30.938L23.450,39.635L22.643,35.200L20.397,36.064L16.365,38.771L16.538,46.202L13.830,48.102L11.757,41.478L17.978,29.325L26.272,20.512L33.587,15.674Z"/>
    <path d="M21.203,63.021L22.298,55.994L33.126,53.978L42.458,59.968L59.046,72.006L56.166,76.960L52.077,86.522L46.144,92.800L41.594,96.198L44.186,111.750L38.944,109.389L36.928,103.283L19.878,66.016Z"/>
    <path d="M62.157,50.061L82.893,33.472L93.318,42.400L97.293,87.443L90.957,92.800L85.773,97.062L85.082,96.198L86.694,85.600L86.810,78.918L88.077,66.016L80.877,58.989L65.267,53.978Z"/>
  </g>
  <g clip-path="url(#gc)">
    <circle cx="38.66" cy="36.35" r="7.04" fill="white"/>
    <circle cx="38.66" cy="36.35" r="3.07" fill="#3730a3"/>
    <line x1="38.66" y1="43.39" x2="38.66" y2="49.15" stroke="white" stroke-width="3.84" stroke-linecap="round"/>
  </g>
  <g clip-path="url(#cc)" stroke-linecap="round">
    <line x1="64.00" y1="29.44" x2="64.00" y2="14.08" stroke="white" stroke-width="4.10" stroke-linecap="round"/>
    <line x1="81.28" y1="34.07" x2="88.96" y2="20.77" stroke="white" stroke-width="4.10" stroke-linecap="round"/>
    <line x1="93.93" y1="46.72" x2="107.23" y2="39.04" stroke="white" stroke-width="4.10" stroke-linecap="round"/>
    <line x1="98.56" y1="64.00" x2="113.92" y2="64.00" stroke="white" stroke-width="4.10" stroke-linecap="round"/>
    <line x1="93.93" y1="81.28" x2="107.23" y2="88.96" stroke="white" stroke-width="4.10" stroke-linecap="round"/>
    <line x1="64" y1="64" x2="85.95" y2="51.33" stroke="white" stroke-width="5.76"/>
    <line x1="64" y1="64" x2="96.92" y2="83.01" stroke="white" stroke-width="3.84"/>
  </g>
  <line x1="64" y1="7.68" x2="64" y2="64" stroke="white" stroke-width="2.56" stroke-opacity="0.4"/>
  <line x1="64" y1="64" x2="113.88" y2="92.80" stroke="white" stroke-width="2.56" stroke-opacity="0.4"/>
  <circle cx="64" cy="64" r="5.12" fill="white"/>
</svg>